<?xml version="1.0" encoding="UTF-8"?>
<svg width="603.09mm" height="199.07mm" version="1.1" viewBox="0 0 603.09 199.07" xmlns="http://www.w3.org/2000/svg" fill="#fff"
  stroke="#fff">
  <g transform="translate(870.02 123.06)">
    <g clip-rule="evenodd" fill-rule="evenodd" stroke-width="3.4316">
      <path d="m-498.7-121.78 16.159-0.28826h7.5014l14.999-0.28482c0.5765 0.57651 0.5765-0.28825 1.4413 0l17.312-0.5765c2.5943 0.5765 6.0602-0.57651 8.3662 0.5765 0.86476-0.28825 1.153 0.28482 1.4413 0.57651 1.4413-0.28825 2.306 0.28825 3.4659 0.57651 1.153-0.57651 3.1708 0 4.9003 0.5765 2.0246 1.153 4.9072 0.28825 7.2132 0.86476 4.6189 0.86476 8.9462 2.886 13.27 5.192v0.28825c4.3306 2.0178 6.9249 5.7685 10.964 8.078 3.1708 4.039 6.9249 7.5014 8.651 12.693 2.306 3.7507 3.4659 8.9427 5.4836 12.982 2.0178 2.5943 2.5943 6.0567 4.0424 8.9427-0.58336 2.8825 0.57652 5.192 2.0178 6.9249 0.5765 6.3484 3.459 10.96 4.9072 16.729 1.153 0.57651 1.7295 1.7295 2.306 3.1742 0.5765 3.7507 2.0178 8.0779 1.153 11.249-0.28824 5.1954-0.28824 10.676-2.0178 15.003-1.153 0.86476 1.4413 2.6011-0.86476 2.6011-1.153 4.0355-2.6011 7.7897-4.3306 11.822-2.5943 2.8894-2.8825 6.9249-6.3484 9.2344-3.459 5.7719-8.651 10.092-13.558 15.288-2.0178 2.0178-4.6189 3.459-6.9249 5.1954-4.3306 1.4413-7.5014 3.459-11.54 5.1886-0.28827-0.86476-0.28827 0.28826-0.86477 0-6.9249 0.28826-12.687-0.5765-17.594-4.3238-2.8894-3.4659-6.6367-6.0602-8.3662-10.099-2.3129-2.5943-4.0424-5.4768-7.2132-7.2132-2.6012-1.7295-6.9249-1.4413-9.8109 0-5.7719 4.6189-10.957 9.8109-17.305 13.27-2.8894 0.86476-4.6189 2.8894-7.5014 3.4659-2.3129 0.86476-3.7542 2.5943-5.7719 3.1708-1.7364 0-4.0424 0.28825-5.7719 1.153-1.153 0.5765-1.4413-0.57651-2.3129-1.153-0.86477-4.3238 2.6011-6.3484 1.7364-10.381-0.5765-1.4481-0.86477-3.4659 0-4.6189 4.0355-1.153 8.3662-2.5943 11.534-4.9072 4.6189-2.5943 9.5226-4.9003 14.718-6.6367 2.306-0.86475 3.1708-2.306 5.4768-3.1708 6.9249-6.6367 15.006-12.693 21.643-19.907 1.4413-1.153 2.8825-2.5977 4.0356-4.3272 2.0178-0.86476 2.6012-3.4625 4.6189-4.3272 0.5765-2.0212 2.8825-2.5977 3.7473-4.9072 0.86477-1.4413 2.3129-2.8825 3.4659-4.6155 3.1708-4.3272 5.7719-9.231 9.5158-13.27 0-1.153 1.153-1.153 1.4413-2.306 0.57651-0.57651 0.57651-1.4413 1.153-2.306 2.3129-3.7507 2.3129-9.231 7.7931-10.384 1.7295 1.153 0 3.1742 0.5765 4.6155-0.86476 2.3095-1.7364 4.6155-2.0246 6.9249-1.4413 2.5977-2.0178 5.7719-3.459 8.3662-2.5943 4.6155-6.0602 8.3662-9.2275 12.405a162.53 162.53 0 0 1-6.3484 8.3662c-3.4659 4.9072-8.0779 8.651-10.964 14.135-2.8825 1.4413-3.7473 4.3307-6.0602 6.3484l-3.1708 4.0424c0.28823 1.7295 2.5943 2.0178 4.3238 2.306 5.4837 1.4413 8.6579 6.0602 12.405 10.092 1.7295 2.0246 2.3129 4.6189 4.6189 6.0602 3.7473 0.28826 6.0602-2.5943 8.651-4.3238 1.4413-0.86476 2.306-2.3129 3.4659-3.4659-0.28824-0.86476 0.86476-0.86476 0.86476-1.4413 1.4413-2.306 3.459-4.3307 4.6121-7.2132 1.4481-1.4413 2.0246-4.0424 3.7542-5.7719 1.4413-3.4659 2.8825-7.5014 4.9072-10.957 0.5765-1.1599 0.5765-2.6011 1.153-3.4659 0.86476-4.3307 1.153-8.6544 1.7295-12.693-0.28826-4.039 0.5765-7.5014 0.5765-11.54-2.0178-4.6155 0.86476-9.231-1.4413-13.558-0.5765-4.9037-0.5765-9.5192-2.306-13.846-1.7364-5.192-3.7542-10.384-6.6367-14.715-0.57653-2.5943-2.8894-3.7507-4.0424-5.7685-1.7295-0.57651-2.8825-2.306-4.3307-3.4625-3.1708 0-3.1708-4.039-6.3416-4.6155-5.1954-3.4625-10.964-6.6367-17.024-9.5192-6.0602 0-11.252-2.3095-17.017-2.886-5.4836 1.7295-8.9461-2.306-14.423-1.153-4.6189 0-8.6579-0.86476-13.558 0.28825-2.0246 0-2.0246-3.7507-4.6189-2.5943-7.5014-1.153-17.024-0.28825-24.81 1.7295-4.6121 0.28825-8.9393 2.886-13.846 2.886-0.86476-1.153-2.306-1.7295-1.7295-3.4625 0.5765-1.4413 2.306-2.5977 4.0424-2.5977 4.9003-1.153 8.3662-3.7507 14.135-4.039z"/>
      <path d="m-280.9-122.08c0.86476 1.4413 0.86476 2.886 0.86476 4.6155-1.4413 2.0178-3.459 4.039-1.4413 6.9249-0.5765 2.886 0.28823 6.0602 0.5765 8.9427 0.5765 4.6155-0.5765 8.651-0.5765 12.982-0.86477 3.1708-1.4413 6.3484-2.8894 9.5192a24.381 24.381 0 0 1-1.4413 4.9037c-1.153 3.7507-2.5943 7.2132-3.7473 10.964-1.4482 1.153-2.0246 2.886-3.1776 3.7507-1.153 4.3272-3.7473 8.0779-5.4837 12.117-1.4413 0.57651-1.153 2.5943-2.306 3.1708-3.1708 6.0602-5.7719 12.693-10.669 17.597-0.87161 0.28825-1.1599 1.153-1.7364 1.7295-0.5765 0.28482-0.28826 0.86133-0.86476 1.153-0.5765-1.7295 0.86476-3.7507 0.86476-5.4802 0.86477-2.0212 0.86477-4.3307 2.3129-6.0602l0.5765-2.5977c2.306-2.0178 2.0178-5.7685 3.7473-8.0779-0.28827-2.3095 1.7364-3.1742 1.7364-5.192 1.7295-2.3095 1.153-5.4802 3.459-7.5014 1.153-1.4413 0.86476-3.7507 0.86476-5.7685 0.5765-2.0178 2.6012-3.1708 2.3129-5.4802 1.153-1.153 0-3.1742 0.86477-4.3272 0-2.5943 1.153-4.3272 1.153-6.9249 1.153-1.7295 0-4.9037 1.4413-6.6332-0.28826-2.5977 0-5.4837 0.28824-8.0779a125.93 125.93 0 0 0-3.1708-18.174c-0.87164-0.86476-2.0246-1.7295-2.3129-3.1742-0.5765-2.0178 1.4413-2.886 3.1776-3.4625 3.7473-1.153 9.2275-2.8825 14.135-2.306z"/>
      <path d="m-706.41-24.282c0 2.8894 2.886 3.4659 2.0212 6.6367-0.86476 2.6011-0.57651 5.7719-3.4625 6.6367-1.153 0-1.733-0.86476-2.3094-1.7295-0.28826-1.4413 1.153-3.7473-0.86476-4.3307-3.7507 0.86476-6.3484 3.1776-9.231 4.9072-9.8075 7.5014-14.423 19.33-19.615 29.711-1.153 1.1599-1.4413 2.6011-2.0178 4.0424-3.1742 7.2132-7.2132 14.423-12.117 20.771-2.3094 2.5943-4.9037 4.6189-6.9249 7.5014-4.3272 4.6189-10.096 8.078-15.576 11.252-2.5977 0.28826-4.9037 0.86476-6.3484 2.0178-4.3272 0.86476-10.384 3.1708-14.423 1.7295-1.4413 0.57651-3.1742-0.28825-4.6155-0.5765-3.4625-0.86476-6.9249-0.57651-10.096-2.0178-3.4625-0.86475-7.5014-1.153-10.384-2.8825-2.886-1.4481-6.0602-2.0246-8.6545-4.0424-2.306-1.153-4.6155-2.0178-6.0567-4.0424-3.4625-1.4413-18.462-8.651-18.75-11.245-1.153-2.6012-4.039-3.4659-5.4802-5.7719-0.86475-2.0246 0.28826-4.3307-1.7295-4.9072-2.5977-1.153-3.7507-3.459-3.7507-6.9249 0-0.86476 0-2.8825-0.57651-3.459l-1.733 0.28826c-0.28825-2.6011-1.153-6.6367-0.86476-9.5226 1.7295-0.28825 3.7507 0 4.9037 0.86476 4.6155-0.5765 7.5014 2.0246 10.676 4.0424 1.4413 0.86476 2.5943 2.0178 4.9037 2.0178 2.0178 4.6189 7.5014 4.9072 10.672 8.0814 7.2132 1.153 12.113 5.7651 18.462 8.078 2.886 2.306 6.6367 3.459 10.384 4.3238 5.192 2.0246 10.672 3.7542 16.444 4.0424 1.7295 0 4.039-1.153 5.192 0 4.9037-1.4413 10.384-2.6011 14.135-5.4837 3.7507-2.306 7.5014-4.6189 10.096-8.078 2.306-0.28825 1.7295-2.8825 3.7507-3.4659 3.459-4.0355 6.9215-7.7897 9.5158-12.11 2.3095-2.8894 4.9072-5.7719 6.6367-9.5226a55.839 55.839 0 0 0 4.9072-6.6367c2.886-2.5943 4.6155-6.0602 7.5014-8.9393 1.4413-2.5943 4.6155-3.7542 6.3484-6.3484 3.1708-3.1708 7.2132-5.7685 11.825-7.7897 2.8791-0.28825 5.1886 0.86476 7.2063 2.8825z"/>
      <path d="m-664.58-32.933c-0.57651 1.7295-0.57651 3.7507-1.153 5.7719 0.28825 2.5943-1.7295 4.3272-2.0212 6.6367-4.039 4.3238-6.9215 9.5158-10.384 14.135-1.4413 3.7473-5.192 5.4837-6.0602 9.2275-2.0178 3.1776-4.6155 6.6367-6.6333 9.8109-0.5765 0.28825-1.153 0.28825-1.7295 0.28825-0.28826-3.4659 0.28482-6.6367 0.5765-9.8109 0.57651-1.153 1.7295-2.306 2.306-3.7473 1.7295-1.7295 2.886-4.0424 4.9037-6.0602 0.28825-1.7295 2.0178-2.5943 2.5943-4.6189 2.0212-2.5943 4.9072-4.612 6.9249-7.2132l7.2132-11.825c1.4447-0.57651 1.7364-2.8825 3.4625-2.5943zm12.12-24.234c2.306 1.153 6.0567-0.86476 7.7897 0.86476 2.3094 0.57651 4.6155 1.7295 5.7719 3.4625 0.57651 2.5943-1.733 3.4625-3.1742 4.6155-1.153 0.57651-3.1742 0.86476-3.4625 2.3095-0.57651 0.57651-1.4413 1.4413-1.733 2.5943-4.9037 5.192-7.7897 11.54-12.113 17.021-2.5977 5.7719-5.7719 11.252-8.6544 17.024-2.0178 4.0355-5.192 6.9249-6.9249 10.957-2.0178 2.6012-4.6155 4.9072-5.7685 7.7897-0.86476 0.86476-1.1564 1.7295-2.0212 2.3129-2.886 4.3238-5.4802 9.2275-8.9427 13.263 0.28825 4.9072 0.86476 8.9461 1.4413 13.853 0.28826 5.7651 1.153 8.9393 2.0178 15.288 0.86475 2.5943 0.28825 6.3484 1.153 9.5158 0 4.3307 0.86476 8.651-0.86476 11.829-0.57651 0.5765-1.4413 0.5765-2.306 0.28825-1.4413-1.7295-2.0212-4.6189-3.7507-6.0602-2.886-5.7719-5.192-12.693-5.4837-20.483-0.86476-2.306-1.153-5.7719-0.28825-8.078-0.86476-1.4413 0.28825-3.1776-1.153-4.0424-1.7295 2.0246-4.039 4.0424-6.0602 6.3484-1.4413-0.57651-3.7507 0.5765-4.039-1.4413 0.86476-4.3307 4.039-7.5014 6.3484-11.54 0.28826-2.0178 2.5943-2.8825 3.1708-4.9003l0.5765-0.28825c0.28826-1.1599 1.7295-2.0246 2.0178-3.7542-0.28826-4.9072 1.7295-9.5158-0.28826-14.423 0-4.0424 3.459-6.0602 4.3272-9.8109 1.153-1.4413 2.5943-2.306 2.5943-4.3238l0.5765-0.28825 3.4625-7.5015 0.57651-0.28825c2.3094-5.1954 5.4802-9.5226 8.9427-13.85 0.28826-1.4413 1.733-2.306 2.5977-3.7473 2.306-2.5977 2.886-5.7719 5.192-8.0779 1.4413-0.86476 1.4413-2.5943 2.306-3.7507 1.733-1.7295 4.3272-3.1708 5.1954-5.7685 1.7295-2.0178 2.5943-4.3272 4.9037-5.7685 1.7398-2.0143 4.0458 0.29512 6.067-1.1496z"/>
      <path d="m-325.32-73.896c0.28826 1.4413 0.5765 4.039 0 5.4802 0.5765 10.384-2.0246 19.327-3.4659 28.558-2.0178 5.7685-4.3307 11.54-6.9249 16.732-2.306-0.28825-0.86477-3.4625-1.4413-4.9037 1.153-4.3272 1.4413-9.8075 1.7295-14.711 0.28827-3.7507 1.153-7.2132 1.4413-11.252 1.153-0.86476-0.28824-3.4625 1.4481-4.3272 1.153-4.039 1.153-8.6545 3.459-12.117 0.5765-1.153 0.28827-3.1742 1.4413-4.3272 1.153-0.57651 2.0178 0.28825 2.3129 0.86819zm6.6367-14.138c0.57652 0.86476 1.4413 2.0178 0.86476 3.1742-1.1599 1.7295-0.28824 4.3272 0 6.9249-0.86476 4.039-1.7364 8.6545-1.1599 13.27-1.153 3.1708 0.57653 8.3662-0.86474 11.54 0.28824 4.3272-2.0178 7.5014-1.4413 11.537-1.4413 0.86476-0.86477 2.5977-1.7295 3.7507-0.28827 3.4625-0.86477 6.9249-2.306 9.8075 0.5765 4.0355-2.8894 5.7719-3.1776 8.6545-1.4413 2.8894-3.1708 4.6189-4.9071 7.2132-3.1708 1.7295-2.306 6.3484-2.8825 9.8109l0.28823 0.28826c0 5.1886 0.28827 10.957 1.153 15.864-0.57653 3.7473 1.4413 8.9393 0.86474 12.405 1.153 5.7719 0.86476 10.669 1.153 15.864l1.4481 4.0424s0.5765 2.8825 0.86477 3.7473c0.5765 1.153 3.7473 0.86476 2.5943 2.8894-2.5943 1.7295-4.0355-0.5765-5.7719-1.4481-1.4413-1.153-6.9249-10.092-6.9249-12.982-2.306-4.0355-1.153-10.381-2.8825-14.135 0.28827-1.7295-0.28826-4.0355-0.28826-6.0533h0.28826c-0.5765-2.0246-0.86476-4.9072-1.4413-7.5083-0.28827-4.0355 1.4413-7.2132 0.28826-11.245-0.28826-3.1776 0-6.6367 0-9.8109 0.28824-2.306-0.57653-5.7719 0.28824-7.7897 0.28826-2.306-0.5765-4.3238-0.28824-6.6333 2.0178-1.7295 0-5.4802 1.153-7.7897 0.28827-14.715 3.7473-27.693 7.7897-40.39 2.0178-3.7507 3.4659-7.2132 6.0602-10.384 0.5765-0.28825 0.5765-0.86476 1.153-1.153 2.0178-2.306 6.3484-3.1708 9.8143-3.4625z"/>
      <path d="m-606.59 3.4145-0.86476 4.0424c-1.4413 1.153-3.1742 2.5943-3.7507 4.3307 0 0-0.57651-0.28825-0.86476 0 0.28825 0.5765-0.5765 0.86476-0.5765 1.4413-2.306 2.0178-4.6155 4.0356-6.6333 5.7719-2.306 1.4413-3.4625 4.0355-6.3484 4.9003-3.1708 0.5765-5.4802 2.8894-8.9427 2.8894-0.57651 0.57651-1.7295 0.86476-2.0212 0.57651 0.28825-2.5943 2.886-4.0424 3.4625-6.6367 0.86476-0.86476 1.4413-2.3129 2.306-2.8894 1.4413-3.1708 4.3272-5.4768 6.6367-7.7897 2.5977-3.1708 6.6367-4.612 9.8075-6.9249 0.86476-0.57651 0.5765-2.306 2.0178-2.306 1.733 0.5765 4.6189 0 5.7719 2.5943zm2.3095-6.9249c2.5943 1.1599 2.8825 5.7719 6.6367 5.4837 1.153 0.28825 3.1708-0.57651 3.459 0.86476-0.86474 2.6011-3.1708 4.0424-4.9037 5.7719-3.4625 2.5943-6.0567 5.7719-9.5192 8.0779-0.86476 1.4481-1.7295 2.3129-2.5943 3.7542-1.4447 4.3307-5.4837 6.9249-6.6367 11.245 0 2.3129-2.0212 3.1776-1.153 5.4837l-0.28826 0.28826c1.7295 2.6011 3.7507 4.0424 6.6333 4.9072 2.0212 0.28825 4.9072-0.28825 6.3484 1.153 0 2.6011-3.4625 2.8894-4.9037 4.0424-3.4625 0-6.9249 0.28825-8.9427-1.7364-0.86475-0.28139-1.153-1.4413-2.0178-1.4413-2.0212-2.5943-2.886-7.5014-2.0212-10.669 0.28825-1.7295 1.153-2.8894 1.153-4.6189-1.7295-0.28826-3.7507 1.153-4.9037 2.306-4.9037 2.0246-8.9427 4.6189-15.003 5.4837-1.153-0.28825-2.5943-0.57651-2.8825-2.0178-1.4447-3.1776 1.153-4.6189 1.153-7.5014 0.86476-0.28826 0.28825-1.7295 1.153-2.3129 1.4413-3.459 3.459-6.9181 6.345-9.804-0.28825-0.57651 0.86476-1.7295-0.57651-2.0178-4.039 0.28826-8.9427 2.0178-13.27 1.7295-0.28825 0.86476 0.57651 2.8825 0 4.0424-0.28825 6.9249-4.3272 11.822-7.2132 17.305-1.153 2.306-2.5943 4.6189-5.7685 5.1954-2.0178 0.28826-3.1742-1.153-4.3272-2.306-0.28825-2.0246-2.0178-3.1776-3.7507-4.0424-1.4413-2.8894-1.4413-7.2132-3.1742-10.099 0.28825-1.7295-0.86476-3.1708-1.7295-4.0355a2.2237 2.2237 0 0 0-2.886-0.28825c-0.5765 0.86476-1.4413 1.7295-2.886 1.153-0.5765-3.7473 2.886-4.9072 4.039-8.078 1.4447-1.153 2.886-2.8825 5.1954-2.6011 1.4413 1.7364 2.5943 4.0424 3.7507 6.3484 1.4413 1.4481 0 3.7542 1.4413 5.1954 0.28825 2.8894 1.153 5.4837 3.1742 6.9249 1.153 0.28825 2.5977 1.7295 4.039 0.28825 3.1742-4.612 3.1742-11.245 3.7507-17.305-0.28825-3.1776-2.5977-5.4837-2.886-8.0779 3.1742 0 5.192-4.0424 8.078-1.7364-0.28825 2.0246 1.153 2.6011 1.7295 3.4659 4.3272 1.4413 9.5192 0 14.135-1.153 2.5943-1.4481 6.345-1.7364 8.9427-3.1776 2.0178-0.86476 3.7507-1.7295 5.7719-2.306 2.8825-1.153 6.345-2.3129 8.9393-4.0424 2.886-7e-3 5.7719-7e-3 8.3696 0.8579z"/>
      <path d="m-726.6 30.819c1.153 1.7364-0.57651 2.6011 0.5765 4.0424-0.28825 2.8825-1.7295 5.4837-3.4625 7.5014-0.57651 1.7295-3.1742 2.0178-4.3272 3.459-3.1742 1.4481-5.7719 5.4837-10.096 4.6189-0.28825-4.6189 2.5943-7.5014 4.9037-10.381 1.733-1.7364 3.7507-3.7542 4.9037-5.4837 1.4413-1.7295 2.5977-3.4659 4.6155-4.3307 1.4413-0.86819 2.0178 0.57307 2.886 0.57307zm-0.86819-8.6544c2.3094 0.86476 6.0602-1.153 6.3484 2.306 1.153 2.3129 4.3272-1.4413 5.4802 1.1599 0.28825 3.459-3.7507 4.9003-4.039 8.0779v2.306c-0.86476 3.4659-1.7295 8.078 0.57651 11.252 0.28825 0.86476 1.4413 0.28825 2.0178 0.28825 0.86476-0.86475 2.0178-2.0178 3.4625-1.7364 0.5765 0.58337 0.5765 1.7364 1.153 2.3129-1.153 2.306-1.153 5.4837-4.0355 6.0602-3.1742 0.5765-5.192-0.57651-7.2132-1.4413-1.7295-1.1599-2.8825-2.8894-4.039-4.6189-2.306 0.86476-4.039 2.306-5.4802 4.0424-3.4625 2.0178-6.6367 4.9003-10.384 6.6298-1.4413-0.57651-2.8825-0.86476-4.039-1.7295-4.9037-9.2275 1.733-17.017 6.0602-23.654 2.886-3.4659 6.0602-6.3484 9.5192-9.2344 0.57651-1.153 2.5943-1.4413 3.7507-1.7295z"/>
      <path d="m-579.76 10.624c-0.28826 2.6011-0.57652 4.9072-1.733 6.6367-0.86477 1.4481-2.0178 2.3129-2.5943 3.4659-3.4625 1.7295-6.9215 3.459-10.384 4.9072-0.86476 0.5765-1.153 0.28825-2.0178 0.28825-1.4413-1.153 0-2.3129 0-3.1776 1.7295-2.0178 1.153-4.612 2.886-6.3484 2.306-2.8825 6.3484-3.1708 8.6545-5.7719 1.4378-0.5765 4.3238-1.7295 5.1886 0zm37.792-5.7651c1.7295 2.306 0.28824 4.9003-0.28827 7.2132-2.306 3.1708-4.9071 6.3416-9.804 6.0602-2.3129-2.3129-0.28827-4.9072 0-7.2132 1.7295-2.6011 2.8825-5.1954 6.0602-6.6367 0.86133-2.0212 3.4556-0.86819 4.0321 0.5765zm-4.3238-56.834c2.0178 0 2.0178 2.0178 1.7295 3.4625-3.1776 5.192-5.7719 10.384-7.7897 15.868-0.86477 3.1708-2.3129 6.345-2.8894 9.5192-1.153 1.4447-1.7295 2.886-2.5943 4.3272-0.5765 4.3307-3.1708 7.7897-3.7541 12.117-2.5943 4.0355-2.5943 9.2275-5.1886 13.27 0 2.8825-2.5977 4.3307-1.733 7.5014-1.4413 2.0178-0.5765 4.9072-1.7295 6.9249 0 2.0178 0.5765 2.5943 0.5765 4.6189 1.7295 5.7651 6.0567 9.2275 11.54 10.381 2.306 0.5765 4.9072 0.5765 7.5014 0.86476 4.6189-0.28826 10.669-0.28826 14.999-2.306l8.3662-2.5943 0.28824-0.87162c-0.28824-2.5943-2.0178-7.2132 0-8.9393-0.28824-1.7295 1.7364-1.7295 1.4481-3.1708 1.4413-3.4659 4.3238-5.7719 5.7651-9.2344 1.1599-1.4413 1.7364-3.1708 3.4659-4.612-0.28824-2.3129 2.5943-3.1776 3.1708-5.1954 0.86476-0.86476 1.1599-1.7295 1.4481-2.8894-2.0246-1.153-2.8894 0.87163-4.0424 1.7364-1.7295 3.459-6.3484 5.1886-11.829 5.4837-1.4413 0.5765-3.1708 0.86476-4.6121 1.4413l-2.6011 1.7295c-0.28824 4.0424-1.153 7.7897-4.612 9.804-0.58338 0.28825-1.4481 1.153-1.4481 2.0246-4.0355 1.4413-5.7651 4.9003-10.092 6.0602-1.4413 0.86476-3.1776 1.153-5.1954 1.153-2.306-0.57651-4.0355-2.6011-4.9003-5.4837 1.153-5.1954 2.5943-10.676 5.1886-15.288 1.153-1.4413 1.7295-3.7542 2.8894-5.4837 1.153-1.4413 2.5943-2.306 4.6121-2.8894 0.5765-1.153 0.28824-2.306 0.28824-3.7473 1.153-0.57651 1.153-2.0178 2.6011-2.6011 3.459 0 5.1886 3.4659 6.9249 6.3484 1.153 0.87162 0.86477 3.1776 2.8825 3.4659 5.4837-1.4413 10.099-3.4659 12.982-7.5014 3.1708-2.8894 6.0602-6.0602 11.54-6.3484 2.0178-0.28826 3.459 1.4413 5.4768 0.28825 1.1599-2.0178 3.7542-2.8825 3.7542-5.4837 2.306-1.4413 2.0178-4.3238 2.8825-6.6333 0.57651-2.5977 2.8894-3.7507 5.1954-4.6155 1.153-1.7295 3.1777-0.28825 4.6189-0.57651 2.0178 0.28825 4.3238 0 5.4836 1.153 1.7295 1.733 0.86477 3.7507 0.86477 6.0602-1.4413 4.6155 1.7295 10.096-1.7364 13.843-1.7295 1.4481-3.7473 0.87162-5.765 1.1599-1.7364-1.7364-2.3129-4.9072-3.7542-6.6367-0.28826-0.28825-1.4413-0.28825-1.7295 0-3.1776 6.9249-8.3662 13.27-11.252 20.483-1.7295 4.3238-3.459 8.9393-5.7719 12.982-1.153 2.0178-2.306 4.612-4.0355 6.6367 0.28824 0.5765-0.28826 0.5765 0 1.153 1.4413-0.28825 2.0178 0 3.1708 0.57651 1.153 2.306-1.7295 3.1708-2.5943 4.6189l-2.8825 0.86476-13.558 6.3484-5.7719 2.5943v-0.28825c-3.7542 3.1708-11.54 2.0178-16.736 2.5943-3.7473 0-6.9249-1.4413-9.8041-2.5943-3.1742-1.4413-5.7719-3.4659-8.3662-6.0602 0-0.5765-0.86476-0.86476-1.153-1.4413 0-1.4413-0.5765-3.1776-1.4413-3.4659-1.153-3.459-1.153-7.5014-1.4413-10.669-2.306 0.86475-2.8825 3.1708-4.6155 4.612-2.8825 1.4481-4.6155 3.7542-8.0779 4.6189-5.7719 0-6.9249 7.5014-12.693 4.6189-1.7295-2.0246-2.306-3.7542-1.7295-6.3484 2.0178-5.1954 3.1742-10.964 7.5014-14.711 2.5943-3.4659 7.2132-4.6189 8.9427-8.3662 1.4413-2.6011 4.039-3.7542 7.5015-3.7542 1.153 0.57651 2.5943 0.86476 4.039 1.4413 3.7507-6.6367 4.9037-14.135 8.0779-20.771 0.28827-1.7295 1.7329-2.306 1.7329-4.6155 2.5943-3.1742 2.8825-7.2132 5.7719-10.676 1.7295-3.7507 2.8825-8.0779 5.1886-11.825-0.57653-1.4413-1.153-3.7507-0.28826-5.192 2.8722-1.4447 6.043 0.57651 9.7972-0.86819z"/>
      <path d="m-301.67-17.069c0 1.4481 1.7295 1.4481 1.153 3.1776-4.9072 6.3484-6.9249 14.135-9.5158 22.213-0.5765 4.3307-2.8894 8.0779-2.0246 12.693 6.0602 1.7295 10.964-2.6011 15.006-5.1954 3.7473-3.459 8.0779-6.3484 11.534-10.092a1.6025 1.6025 0 0 0 1.4481-0.86476c2.5943-1.7364 5.1886-3.4659 7.2132-6.0602 1.7295-1.153 2.8825-3.1776 4.3238-4.3307 1.4413-0.28825 2.0178-2.5943 3.7542-1.7295 0.5765 1.153 2.306 2.0178 1.7295 3.459-1.4413 2.8894-4.9072 4.0424-6.0602 6.9249-2.8825 1.1599-4.0424 3.1776-6.0602 4.6189-1.153 2.306-4.3238 2.306-5.4837 4.0424-4.3238 2.5943-7.7897 6.0533-11.534 8.9393-2.3129 1.153-3.4659 4.0424-6.6367 4.0424-2.6012 2.306-8.3662 2.8825-11.54 2.0178-3.7473-0.86476-5.4837-4.9072-7.2132-8.3696 0.28827-5.1886 2.0178-9.5158 2.5943-14.711 2.0246-5.1886 3.1777-10.957 5.1954-16.152 1.153-0.28825 1.4413-1.7295 2.3129-2.5943 1.7295-1.7364 2.306-5.1954 5.7651-4.3307z"/>
      <path d="m-360.81 12.937c0.5765 2.5943 2.0246 6.3484-0.28823 7.7897-0.57653 3.1708-2.0178 6.6367-5.4768 7.5014-1.7364 1.153-4.3306 2.0178-6.9249 2.306 0.57651-1.7295-1.1599-3.459 0-4.9003 1.7295-3.4659 3.1708-7.5014 6.6298-10.099 1.7398-1.1564 3.4693-4.3341 6.0602-2.5977zm2.6012-7.2132c1.4413 0.57651 2.0178 2.306 2.8825 3.459 1.4413-0.57651 2.6011-3.7473 4.6189-2.0178 0 1.7295 2.0178 2.8825 0.86476 4.3306-3.7541 6.3416-7.7897 12.398-8.3662 20.483 0 1.7295 1.4413 2.306 2.306 2.5943 1.7295-0.5765 2.5943 0.28826 3.1776 1.153 0.5765 2.0178-1.4481 2.306-2.0246 3.4659-4.0355 1.153-6.3484-0.28826-8.9393-2.3129-1.4413-0.57651-1.4413-3.7473-3.459-2.5943a27.779 27.779 0 0 1-10.387 3.7473c-0.86476 1.1599-1.7295 0-2.5943-0.28825-2.6011-3.7473 0.57653-7.2132 0.57653-11.245 1.4413-3.1776 1.4413-7.5014 4.0355-9.8109 1.4413-2.5943 3.7542-4.3238 5.1954-6.6367 2.0178-2.0178 5.1954-3.459 8.078-4.9003 1.7226-3e-3 3.459-0.29169 4.0355 0.57307z"/>
      <path d="m-356.19 45.537c0.28827 1.4413-1.4413 1.4413-2.0178 2.306-3.7542 2.8825-8.3662 4.9072-12.693 7.5014-2.8825 2.0178-4.3306 5.7719-7.5014 7.5014h-4.3306c1.4413-4.0424 4.6189-6.6367 7.7897-8.9393 0-0.86476 1.1598-0.86476 1.7364-1.4481 3.1708-4.0355 8.3662-6.3416 13.558-8.651 1.4413 0 1.4413-0.57651 2.5943-0.57651z"/>
    </g>
  </g>
</svg>
